Adsworth-72PTG0XT.ufo
<glyph name="D" format="2">
  <advance width="1375.0"/>
  <outline>
    <contour>
      <point x="210.0" y="0.0" type="line"/>
      <point x="210.0" y="1500.0" type="line"/>
      <point x="180.0" y="1500.0" type="line"/>
      <point x="180.0" y="0.0" type="line"/>
    </contour>
    <contour>
      <point x="676.0" y="-17.0" type="line" smooth="yes"/>
      <point x="925.0" y="-17.0"/>
      <point x="1276.0" y="405.0"/>
      <point x="1276.0" y="741.0" type="qcurve" smooth="yes"/>
      <point x="1276.0" y="760.0" type="line" smooth="yes"/>
      <point x="1276.0" y="1099.0"/>
      <point x="923.0" y="1519.0"/>
      <point x="674.0" y="1520.0" type="qcurve" smooth="yes"/>
      <point x="202.0" y="1520.0" type="line"/>
      <point x="202.0" y="1500.0" type="line"/>
      <point x="623.0" y="1500.0" type="line" smooth="yes"/>
      <point x="891.0" y="1500.0"/>
      <point x="1249.0" y="1107.0"/>
      <point x="1249.0" y="759.0" type="qcurve" smooth="yes"/>
      <point x="1249.0" y="740.0" type="line" smooth="yes"/>
      <point x="1249.0" y="392.0"/>
      <point x="897.0" y="0.0"/>
      <point x="644.0" y="0.0" type="qcurve" smooth="yes"/>
      <point x="202.0" y="0.0" type="line"/>
      <point x="202.0" y="-17.0" type="line"/>
    </contour>
  </outline>
</glyph>
<glyph name="H" format="2">
  <advance width="1342.0"/>
  <outline>
    <contour>
      <point x="216.0" y="0.0" type="line"/>
      <point x="216.0" y="1500.0" type="line"/>
      <point x="186.0" y="1500.0" type="line"/>
      <point x="186.0" y="0.0" type="line"/>
    </contour>
    <contour>
      <point x="1156.0" y="0.0" type="line"/>
      <point x="1156.0" y="1500.0" type="line"/>
      <point x="1126.0" y="1500.0" type="line"/>
      <point x="1126.0" y="0.0" type="line"/>
    </contour>
    <contour>
      <point x="1146.0" y="819.0" type="line"/>
      <point x="196.0" y="819.0" type="line"/>
      <point x="196.0" y="790.0" type="line"/>
      <point x="1146.0" y="790.0" type="line"/>
    </contour>
  </outline>
</glyph>
<glyph name="I" format="2">
  <advance width="462.0"/>
  <outline>
    <contour>
      <point x="245.0" y="0.0" type="line"/>
      <point x="245.0" y="1500.0" type="line"/>
      <point x="219.0" y="1500.0" type="line"/>
      <point x="219.0" y="0.0" type="line"/>
    </contour>
    <contour>
      <point x="231.0" y="0.0" type="line"/>
      <point x="221.0" y="0.0" type="line"/>
      <point x="221.0" y="-16.0" type="line"/>
      <point x="231.0" y="-16.0" type="line"/>
    </contour>
    <contour>
      <point x="231.0" y="1516.0" type="line"/>
      <point x="221.0" y="1516.0" type="line"/>
      <point x="221.0" y="1500.0" type="line"/>
      <point x="231.0" y="1500.0" type="line"/>
    </contour>
  </outline>
</glyph>
<glyph name="J" format="2">
  <advance width="939.0"/>
  <outline>
    <contour>
      <point x="736.0" y="429.0" type="line" smooth="yes"/>
      <point x="736.0" y="178.0"/>
      <point x="561.0" y="-17.0"/>
      <point x="384.0" y="-17.0" type="qcurve" smooth="yes"/>
      <point x="387.0" y="-17.0" type="line" smooth="yes"/>
      <point x="204.0" y="-17.0"/>
      <point x="38.0" y="162.0"/>
      <point x="31.0" y="357.0" type="qcurve" smooth="yes"/>
      <point x="31.0" y="352.0" type="line"/>
      <point x="10.0" y="339.0" type="line"/>
      <point x="10.0" y="319.0" type="line" smooth="yes"/>
      <point x="10.0" y="143.0"/>
      <point x="184.0" y="-37.0"/>
      <point x="383.0" y="-37.0" type="qcurve" smooth="yes"/>
      <point x="395.0" y="-37.0" type="line" smooth="yes"/>
      <point x="572.0" y="-37.0"/>
      <point x="766.0" y="179.0"/>
      <point x="766.0" y="399.0" type="qcurve" smooth="yes"/>
      <point x="765.0" y="1510.0" type="line"/>
      <point x="736.0" y="1500.0" type="line"/>
    </contour>
  </outline>
</glyph>
<glyph name="N" format="2">
  <advance width="1340.0"/>
  <outline>
    <contour>
      <point x="210.0" y="0.0" type="line"/>
      <point x="210.0" y="1500.0" type="line"/>
      <point x="173.0" y="1500.0" type="line"/>
      <point x="1161.0" y="-32.0" type="line"/>
      <point x="1161.0" y="1500.0" type="line"/>
      <point x="1130.0" y="1500.0" type="line"/>
      <point x="1130.0" y="0.0" type="line"/>
      <point x="1157.0" y="0.0" type="line"/>
      <point x="1157.0" y="3.0" type="line"/>
      <point x="179.0" y="1568.0" type="line"/>
      <point x="179.0" y="0.0" type="line"/>
    </contour>
  </outline>
</glyph>
<glyph name="T" format="2">
  <advance width="1046.0"/>
  <outline>
    <contour>
      <point x="546.0" y="0.0" type="line"/>
      <point x="546.0" y="1510.0" type="line"/>
      <point x="516.0" y="1510.0" type="line"/>
      <point x="516.0" y="0.0" type="line"/>
    </contour>
    <contour>
      <point x="1036.0" y="1521.0" type="line"/>
      <point x="10.0" y="1521.0" type="line"/>
      <point x="10.0" y="1500.0" type="line"/>
      <point x="1036.0" y="1500.0" type="line"/>
    </contour>
  </outline>
</glyph>
<glyph name="U" format="2">
  <advance width="1335.0"/>
  <outline>
    <contour>
      <point x="176.0" y="1500.0" type="line"/>
      <point x="146.0" y="1500.0" type="line"/>
      <point x="146.0" y="532.0" type="line" smooth="yes"/>
      <point x="146.0" y="247.0"/>
      <point x="448.0" y="-28.0"/>
      <point x="658.0" y="-28.0" type="qcurve" smooth="yes"/>
      <point x="669.0" y="-28.0" type="line" smooth="yes"/>
      <point x="898.0" y="-28.0"/>
      <point x="1185.0" y="267.0"/>
      <point x="1185.0" y="532.0" type="qcurve" smooth="yes"/>
      <point x="1185.0" y="1500.0" type="line"/>
      <point x="1159.0" y="1500.0" type="line"/>
      <point x="1155.0" y="528.0" type="line" smooth="yes"/>
      <point x="1154.0" y="269.0"/>
      <point x="896.0" y="-19.0"/>
      <point x="669.0" y="-19.0" type="qcurve" smooth="yes"/>
      <point x="662.0" y="-19.0" type="line" smooth="yes"/>
      <point x="474.0" y="-19.0"/>
      <point x="176.0" y="243.0"/>
      <point x="176.0" y="554.0" type="qcurve" smooth="yes"/>
    </contour>
  </outline>
</glyph>
<glyph name="W" format="2">
  <advance width="1770.0"/>
  <outline>
    <contour>
      <point x="446.0" y="0.0" type="line"/>
      <point x="21.0" y="1500.0" type="line"/>
      <point x="-27.0" y="1500.0" type="line"/>
      <point x="450.0" y="-103.0" type="line"/>
      <point x="873.0" y="1500.0" type="line"/>
      <point x="859.0" y="1500.0" type="line"/>
      <point x="1289.0" y="-98.0" type="line"/>
      <point x="1742.0" y="1500.0" type="line"/>
      <point x="1700.0" y="1500.0" type="line"/>
      <point x="1294.0" y="0.0" type="line"/>
      <point x="1281.0" y="0.0" type="line"/>
      <point x="870.0" y="1508.0" type="line"/>
      <point x="864.0" y="1508.0" type="line"/>
      <point x="455.0" y="0.0" type="line"/>
    </contour>
  </outline>
</glyph>
<glyph name="X" format="2">
  <advance width="1080.0"/>
  <outline>
    <contour>
      <point x="40.0" y="0.0" type="line"/>
      <point x="552.0" y="757.0" type="line"/>
      <point x="550.0" y="740.0" type="line"/>
      <point x="1056.0" y="1500.0" type="line"/>
      <point x="1027.0" y="1500.0" type="line"/>
      <point x="543.0" y="783.0" type="line"/>
      <point x="536.0" y="788.0" type="line"/>
      <point x="11.0" y="0.0" type="line"/>
    </contour>
    <contour>
      <point x="1063.0" y="0.0" type="line"/>
      <point x="548.0" y="777.0" type="line"/>
      <point x="554.0" y="763.0" type="line"/>
      <point x="61.0" y="1500.0" type="line"/>
      <point x="39.0" y="1500.0" type="line"/>
      <point x="537.0" y="744.0" type="line"/>
      <point x="524.0" y="769.0" type="line"/>
      <point x="1040.0" y="0.0" type="line"/>
    </contour>
  </outline>
</glyph>
<glyph name="Y" format="2">
  <advance width="1150.0"/>
  <outline>
    <contour>
      <point x="605.0" y="500.0" type="line"/>
      <point x="20.0" y="1500.0" type="line"/>
      <point x="0.0" y="1500.0" type="line"/>
      <point x="575.0" y="507.0" type="line"/>
      <point x="1151.0" y="1500.0" type="line"/>
      <point x="1130.0" y="1500.0" type="line"/>
      <point x="543.0" y="500.0" type="line"/>
    </contour>
    <contour>
      <point x="589.0" y="0.0" type="line"/>
      <point x="589.0" y="520.0" type="line"/>
      <point x="559.0" y="520.0" type="line"/>
      <point x="559.0" y="0.0" type="line"/>
    </contour>
  </outline>
</glyph>
<glyph name="Z" format="2">
  <advance width="1088.0"/>
  <outline>
    <contour>
      <point x="1040.0" y="0.0" type="line"/>
      <point x="34.0" y="0.0" type="line"/>
      <point x="29.0" y="-18.0" type="line"/>
      <point x="1078.0" y="1523.0" type="line"/>
      <point x="24.0" y="1523.0" type="line"/>
      <point x="24.0" y="1500.0" type="line"/>
      <point x="1040.0" y="1500.0" type="line"/>
      <point x="1040.0" y="1523.0" type="line"/>
      <point x="-9.0" y="-23.0" type="line"/>
      <point x="1040.0" y="-23.0" type="line"/>
    </contour>
  </outline>
</glyph>
<glyph name="a" format="2">
  <advance width="977.0"/>
  <outline>
    <contour>
      <point x="150.0" y="903.0" type="line"/>
      <point x="158.0" y="919.0"/>
      <point x="318.0" y="1014.0"/>
      <point x="444.0" y="1014.0" type="qcurve" smooth="yes"/>
      <point x="623.0" y="1014.0"/>
      <point x="808.0" y="828.0"/>
      <point x="810.0" y="669.0" type="qcurve" smooth="yes"/>
      <point x="810.0" y="0.0" type="line"/>
      <point x="841.0" y="0.0" type="line"/>
      <point x="841.0" y="683.0" type="line" smooth="yes"/>
      <point x="841.0" y="860.0"/>
      <point x="620.0" y="1046.0"/>
      <point x="443.0" y="1046.0" type="qcurve" smooth="yes"/>
      <point x="356.0" y="1046.0"/>
      <point x="173.0" y="970.0"/>
      <point x="144.0" y="932.0" type="qcurve"/>
    </contour>
    <contour>
      <point x="814.0" y="126.0" type="line"/>
      <point x="789.0" y="89.0"/>
      <point x="575.0" y="-25.0"/>
      <point x="421.0" y="-25.0" type="qcurve" smooth="yes"/>
      <point x="247.0" y="-25.0"/>
      <point x="66.0" y="141.0"/>
      <point x="66.0" y="289.0" type="qcurve" smooth="yes"/>
      <point x="66.0" y="439.0"/>
      <point x="265.0" y="611.0"/>
      <point x="452.0" y="611.0" type="qcurve" smooth="yes"/>
      <point x="586.0" y="611.0"/>
      <point x="787.0" y="561.0"/>
      <point x="817.0" y="547.0" type="qcurve"/>
      <point x="817.0" y="559.0" type="line"/>
      <point x="828.0" y="566.0"/>
      <point x="570.0" y="635.0"/>
      <point x="443.0" y="635.0" type="qcurve" smooth="yes"/>
      <point x="258.0" y="635.0"/>
      <point x="41.0" y="437.0"/>
      <point x="41.0" y="283.0" type="qcurve" smooth="yes"/>
      <point x="41.0" y="133.0"/>
      <point x="256.0" y="-58.0"/>
      <point x="440.0" y="-58.0" type="qcurve" smooth="yes"/>
      <point x="565.0" y="-58.0"/>
      <point x="794.0" y="75.0"/>
      <point x="814.0" y="133.0" type="qcurve"/>
    </contour>
  </outline>
</glyph>
<glyph name="asterisk" format="2">
  <advance width="956.0"/>
  <outline>
    <contour>
      <point x="508.0" y="1191.0" type="line"/>
      <point x="279.0" y="853.0" type="line"/>
      <point x="280.0" y="853.0" type="line"/>
      <point x="525.0" y="1173.0" type="line"/>
      <point x="179.0" y="1303.0" type="line"/>
      <point x="182.0" y="1303.0" type="line"/>
      <point x="516.0" y="1166.0" type="line"/>
      <point x="514.0" y="1580.0" type="line"/>
      <point x="506.0" y="1580.0" type="line"/>
      <point x="503.0" y="1166.0" type="line"/>
      <point x="844.0" y="1303.0" type="line"/>
      <point x="842.0" y="1300.0" type="line"/>
      <point x="492.0" y="1176.0" type="line"/>
      <point x="746.0" y="853.0" type="line"/>
      <point x="742.0" y="854.0" type="line"/>
    </contour>
  </outline>
</glyph>
<glyph name="at" format="2">
  <advance width="1801.0"/>
  <outline>
    <contour>
      <point x="1224.0" y="739.0" type="qcurve" smooth="yes"/>
      <point x="1219.0" y="710.0" type="line" smooth="yes"/>
      <point x="1184.0" y="505.0"/>
      <point x="940.0" y="301.0"/>
      <point x="774.0" y="301.0" type="qcurve" smooth="yes"/>
      <point x="768.0" y="301.0" type="line" smooth="yes"/>
      <point x="582.0" y="301.0"/>
      <point x="423.0" y="561.0"/>
      <point x="482.0" y="784.0" type="qcurve" smooth="yes"/>
      <point x="490.0" y="813.0" type="line" smooth="yes"/>
      <point x="537.0" y="980.0"/>
      <point x="759.0" y="1171.0"/>
      <point x="917.0" y="1171.0" type="qcurve" smooth="yes"/>
      <point x="924.0" y="1171.0" type="line" smooth="yes"/>
      <point x="1064.0" y="1171.0"/>
      <point x="1256.0" y="925.0"/>
    </contour>
    <contour>
      <point x="1222.0" y="723.0" type="line" smooth="yes"/>
      <point x="1256.0" y="893.0"/>
      <point x="1045.0" y="1197.0"/>
      <point x="900.0" y="1197.0" type="qcurve" smooth="yes"/>
      <point x="894.0" y="1197.0" type="line" smooth="yes"/>
      <point x="751.0" y="1197.0"/>
      <point x="492.0" y="976.0"/>
      <point x="454.0" y="811.0" type="qcurve" smooth="yes"/>
      <point x="449.0" y="789.0" type="line" smooth="yes"/>
      <point x="396.0" y="556.0"/>
      <point x="568.0" y="261.0"/>
      <point x="771.0" y="261.0" type="qcurve" smooth="yes"/>
      <point x="777.0" y="261.0" type="line" smooth="yes"/>
      <point x="927.0" y="261.0"/>
      <point x="1183.0" y="528.0"/>
      <point x="1218.0" y="703.0" type="qcurve" smooth="yes"/>
    </contour>
    <contour>
      <point x="1192.0" y="495.0" type="qcurve" smooth="yes"/>
      <point x="1312.0" y="1125.0" type="line"/>
      <point x="1283.0" y="1125.0" type="line"/>
      <point x="1163.0" y="462.0" type="line" smooth="yes"/>
      <point x="1149.0" y="382.0"/>
      <point x="1222.0" y="288.0"/>
      <point x="1315.0" y="288.0" type="qcurve" smooth="yes"/>
      <point x="1489.0" y="288.0"/>
      <point x="1760.0" y="598.0"/>
      <point x="1760.0" y="806.0" type="qcurve" smooth="yes"/>
      <point x="1760.0" y="1167.0"/>
      <point x="1271.0" y="1566.0"/>
      <point x="929.0" y="1566.0" type="qcurve" smooth="yes"/>
      <point x="585.0" y="1566.0"/>
      <point x="67.0" y="1076.0"/>
      <point x="67.0" y="713.0" type="qcurve" smooth="yes"/>
      <point x="67.0" y="295.0"/>
      <point x="568.0" y="-149.0"/>
      <point x="909.0" y="-149.0" type="qcurve" smooth="yes"/>
      <point x="1139.0" y="-149.0"/>
      <point x="1473.0" y="-1.0"/>
      <point x="1546.0" y="82.0" type="qcurve"/>
      <point x="1524.0" y="114.0" type="line"/>
      <point x="1481.0" y="65.0"/>
      <point x="1207.0" y="-102.0"/>
      <point x="907.0" y="-102.0" type="qcurve" smooth="yes"/>
      <point x="562.0" y="-102.0"/>
      <point x="100.0" y="322.0"/>
      <point x="100.0" y="715.0" type="qcurve" smooth="yes"/>
      <point x="100.0" y="1077.0"/>
      <point x="571.0" y="1524.0"/>
      <point x="930.0" y="1524.0" type="qcurve" smooth="yes"/>
      <point x="1296.0" y="1524.0"/>
      <point x="1731.0" y="1117.0"/>
      <point x="1731.0" y="806.0" type="qcurve" smooth="yes"/>
      <point x="1731.0" y="603.0"/>
      <point x="1508.0" y="319.0"/>
      <point x="1327.0" y="319.0" type="qcurve" smooth="yes"/>
      <point x="1229.0" y="319.0"/>
      <point x="1180.0" y="424.0"/>
    </contour>
  </outline>
</glyph>
<glyph name="bar" format="2">
  <advance width="584.0"/>
  <outline>
    <contour>
      <point x="307.0" y="-500.0" type="line"/>
      <point x="307.0" y="1500.0" type="line"/>
      <point x="277.0" y="1500.0" type="line"/>
      <point x="277.0" y="-500.0" type="line"/>
    </contour>
  </outline>
</glyph>
<glyph name="braceleft" format="2">
  <advance width="566.0"/>
  <outline>
    <contour>
      <point x="62.0" y="615.0" type="line"/>
      <point x="216.0" y="612.0"/>
      <point x="313.0" y="527.0"/>
      <point x="313.0" y="453.0" type="qcurve" smooth="yes"/>
      <point x="313.0" y="415.0"/>
      <point x="261.0" y="321.0"/>
      <point x="228.0" y="278.0" type="qcurve" smooth="yes"/>
      <point x="191.0" y="230.0"/>
      <point x="136.0" y="134.0"/>
      <point x="136.0" y="28.0" type="qcurve" smooth="yes"/>
      <point x="136.0" y="-63.0"/>
      <point x="323.0" y="-262.0"/>
      <point x="487.0" y="-304.0" type="qcurve"/>
      <point x="408.0" y="-289.0" type="line"/>
      <point x="263.0" y="-246.0"/>
      <point x="88.0" y="-29.0"/>
      <point x="88.0" y="32.0" type="qcurve" smooth="yes"/>
      <point x="88.0" y="110.0"/>
      <point x="113.0" y="187.0"/>
      <point x="153.0" y="241.0" type="qcurve" smooth="yes"/>
      <point x="195.0" y="295.0"/>
      <point x="272.0" y="386.0"/>
      <point x="272.0" y="462.0" type="qcurve" smooth="yes"/>
      <point x="272.0" y="508.0"/>
      <point x="167.0" y="594.0"/>
      <point x="75.0" y="603.0" type="qcurve"/>
      <point x="182.0" y="621.0"/>
      <point x="277.0" y="726.0"/>
      <point x="277.0" y="773.0" type="qcurve" smooth="yes"/>
      <point x="277.0" y="836.0"/>
      <point x="206.0" y="930.0"/>
      <point x="165.0" y="979.0" type="qcurve" smooth="yes"/>
      <point x="126.0" y="1025.0"/>
      <point x="94.0" y="1112.0"/>
      <point x="94.0" y="1176.0" type="qcurve" smooth="yes"/>
      <point x="94.0" y="1242.0"/>
      <point x="279.0" y="1453.0"/>
      <point x="412.0" y="1508.0" type="qcurve"/>
      <point x="487.0" y="1526.0" type="line"/>
      <point x="334.0" y="1456.0"/>
      <point x="140.0" y="1283.0"/>
      <point x="140.0" y="1191.0" type="qcurve" smooth="yes"/>
      <point x="140.0" y="1100.0"/>
      <point x="203.0" y="991.0"/>
      <point x="237.0" y="949.0" type="qcurve" smooth="yes"/>
      <point x="271.0" y="907.0"/>
      <point x="319.0" y="817.0"/>
      <point x="319.0" y="766.0" type="qcurve" smooth="yes"/>
      <point x="319.0" y="692.0"/>
      <point x="198.0" y="601.0"/>
      <point x="62.0" y="586.0" type="qcurve"/>
    </contour>
  </outline>
</glyph>
<glyph name="braceright" format="2">
  <advance width="566.0"/>
  <outline>
    <contour>
      <point x="504.0" y="615.0" type="qcurve"/>
      <point x="504.0" y="586.0" type="line"/>
      <point x="368.0" y="601.0"/>
      <point x="247.0" y="692.0"/>
      <point x="247.0" y="766.0" type="qcurve" smooth="yes"/>
      <point x="247.0" y="817.0"/>
      <point x="295.0" y="907.0"/>
      <point x="329.0" y="949.0" type="qcurve" smooth="yes"/>
      <point x="363.0" y="991.0"/>
      <point x="426.0" y="1100.0"/>
      <point x="426.0" y="1191.0" type="qcurve" smooth="yes"/>
      <point x="426.0" y="1283.0"/>
      <point x="232.0" y="1456.0"/>
      <point x="79.0" y="1526.0" type="qcurve"/>
      <point x="154.0" y="1508.0" type="line"/>
      <point x="287.0" y="1453.0"/>
      <point x="472.0" y="1242.0"/>
      <point x="472.0" y="1176.0" type="qcurve" smooth="yes"/>
      <point x="472.0" y="1112.0"/>
      <point x="440.0" y="1025.0"/>
      <point x="401.0" y="979.0" type="qcurve" smooth="yes"/>
      <point x="360.0" y="930.0"/>
      <point x="289.0" y="836.0"/>
      <point x="289.0" y="773.0" type="qcurve" smooth="yes"/>
      <point x="289.0" y="726.0"/>
      <point x="384.0" y="621.0"/>
      <point x="491.0" y="603.0" type="qcurve"/>
      <point x="399.0" y="594.0"/>
      <point x="294.0" y="508.0"/>
      <point x="294.0" y="462.0" type="qcurve" smooth="yes"/>
      <point x="294.0" y="386.0"/>
      <point x="371.0" y="295.0"/>
      <point x="413.0" y="241.0" type="qcurve" smooth="yes"/>
      <point x="453.0" y="187.0"/>
      <point x="478.0" y="110.0"/>
      <point x="478.0" y="32.0" type="qcurve" smooth="yes"/>
      <point x="478.0" y="-29.0"/>
      <point x="303.0" y="-246.0"/>
      <point x="158.0" y="-289.0" type="qcurve"/>
      <point x="79.0" y="-304.0" type="line"/>
      <point x="243.0" y="-262.0"/>
      <point x="430.0" y="-63.0"/>
      <point x="430.0" y="28.0" type="qcurve" smooth="yes"/>
      <point x="430.0" y="134.0"/>
      <point x="375.0" y="230.0"/>
      <point x="338.0" y="278.0" type="qcurve" smooth="yes"/>
      <point x="305.0" y="321.0"/>
      <point x="253.0" y="415.0"/>
      <point x="253.0" y="453.0" type="qcurve" smooth="yes"/>
      <point x="253.0" y="527.0"/>
      <point x="350.0" y="612.0"/>
    </contour>
  </outline>
</glyph>
<glyph name="bracketleft" format="2">
  <advance width="566.0"/>
  <outline>
    <contour>
      <point x="242.0" y="-280.0" type="line"/>
      <point x="242.0" y="1500.0" type="line"/>
      <point x="205.0" y="1500.0" type="line"/>
      <point x="205.0" y="-280.0" type="line"/>
    </contour>
    <contour>
      <point x="536.0" y="-280.0" type="line"/>
      <point x="229.0" y="-280.0" type="line"/>
      <point x="229.0" y="-307.0" type="line"/>
      <point x="536.0" y="-307.0" type="line"/>
    </contour>
    <contour>
      <point x="536.0" y="1527.0" type="line"/>
      <point x="224.0" y="1527.0" type="line"/>
      <point x="224.0" y="1500.0" type="line"/>
      <point x="536.0" y="1500.0" type="line"/>
    </contour>
  </outline>
</glyph>
<glyph name="c" format="2">
  <advance width="980.0"/>
  <outline>
    <contour>
      <point x="930.0" y="352.0" type="line"/>
      <point x="927.0" y="327.0" type="line" smooth="yes"/>
      <point x="911.0" y="189.0"/>
      <point x="719.0" y="-25.0"/>
      <point x="526.0" y="-25.0" type="qcurve" smooth="yes"/>
      <point x="520.0" y="-25.0" type="line" smooth="yes"/>
      <point x="321.0" y="-25.0"/>
      <point x="76.0" y="230.0"/>
      <point x="76.0" y="489.0" type="qcurve" smooth="yes"/>
      <point x="76.0" y="497.0" type="line" smooth="yes"/>
      <point x="76.0" y="734.0"/>
      <point x="314.0" y="1011.0"/>
      <point x="509.0" y="1011.0" type="qcurve" smooth="yes"/>
      <point x="528.0" y="1011.0" type="line" smooth="yes"/>
      <point x="717.0" y="1011.0"/>
      <point x="910.0" y="808.0"/>
      <point x="922.0" y="636.0" type="qcurve" smooth="yes"/>
      <point x="924.0" y="610.0" type="line"/>
      <point x="967.0" y="610.0" type="line"/>
      <point x="964.0" y="645.0" type="line" smooth="yes"/>
      <point x="949.0" y="810.0"/>
      <point x="744.0" y="1031.0"/>
      <point x="533.0" y="1031.0" type="qcurve" smooth="yes"/>
      <point x="517.0" y="1031.0" type="line" smooth="yes"/>
      <point x="303.0" y="1031.0"/>
      <point x="37.0" y="749.0"/>
      <point x="37.0" y="508.0" type="qcurve" smooth="yes"/>
      <point x="37.0" y="472.0" type="line" smooth="yes"/>
      <point x="37.0" y="233.0"/>
      <point x="307.0" y="-40.0"/>
      <point x="523.0" y="-40.0" type="qcurve" smooth="yes"/>
      <point x="548.0" y="-40.0" type="line" smooth="yes"/>
      <point x="742.0" y="-40.0"/>
      <point x="954.0" y="188.0"/>
      <point x="968.0" y="324.0" type="qcurve" smooth="yes"/>
      <point x="972.0" y="354.0" type="line"/>
    </contour>
  </outline>
</glyph>
<glyph name="colon" format="2">
  <advance width="600.0"/>
  <outline>
    <contour>
      <point x="300.0" y="3.0" type="line" smooth="yes"/>
      <point x="301.0" y="3.0"/>
      <point x="302.0" y="28.0"/>
      <point x="302.0" y="57.0" type="qcurve" smooth="yes"/>
      <point x="302.0" y="82.0" type="line" smooth="yes"/>
      <point x="302.0" y="110.0"/>
      <point x="303.0" y="136.0"/>
      <point x="301.0" y="136.0" type="qcurve" smooth="yes"/>
      <point x="299.0" y="136.0" type="line" smooth="yes"/>
      <point x="298.0" y="136.0"/>
      <point x="297.0" y="110.0"/>
      <point x="297.0" y="82.0" type="qcurve" smooth="yes"/>
      <point x="297.0" y="57.0" type="line" smooth="yes"/>
      <point x="297.0" y="29.0"/>
      <point x="297.0" y="3.0"/>
      <point x="299.0" y="3.0" type="qcurve" smooth="yes"/>
    </contour>
    <contour>
      <point x="300.0" y="816.0" type="line" smooth="yes"/>
      <point x="301.0" y="816.0"/>
      <point x="302.0" y="841.0"/>
      <point x="302.0" y="870.0" type="qcurve" smooth="yes"/>
      <point x="302.0" y="895.0" type="line" smooth="yes"/>
      <point x="302.0" y="923.0"/>
      <point x="303.0" y="949.0"/>
      <point x="301.0" y="949.0" type="qcurve" smooth="yes"/>
      <point x="299.0" y="949.0" type="line" smooth="yes"/>
      <point x="298.0" y="949.0"/>
      <point x="297.0" y="923.0"/>
      <point x="297.0" y="895.0" type="qcurve" smooth="yes"/>
      <point x="297.0" y="870.0" type="line" smooth="yes"/>
      <point x="297.0" y="842.0"/>
      <point x="297.0" y="816.0"/>
      <point x="299.0" y="816.0" type="qcurve" smooth="yes"/>
    </contour>
  </outline>
</glyph>
<glyph name="comma" format="2">
  <advance width="600.0"/>
  <outline>
    <contour>
      <point x="200.0" y="-128.0" type="line"/>
      <point x="311.0" y="69.0" type="line" smooth="yes"/>
      <point x="328.0" y="99.0"/>
      <point x="352.0" y="146.0"/>
      <point x="361.0" y="146.0" type="qcurve" smooth="yes"/>
      <point x="361.0" y="146.0" type="line" smooth="yes"/>
      <point x="360.0" y="146.0"/>
      <point x="361.0" y="118.0"/>
      <point x="334.0" y="71.0" type="qcurve" smooth="yes"/>
      <point x="329.0" y="64.0" type="line" smooth="yes"/>
      <point x="312.0" y="39.0"/>
      <point x="209.0" y="-58.0"/>
      <point x="184.0" y="-123.0" type="qcurve"/>
    </contour>
  </outline>
</glyph>
<glyph name="dollar" format="2">
  <advance width="1160.0"/>
  <outline>
    <contour>
      <point x="1087.0" y="396.0" type="line" smooth="yes"/>
      <point x="1087.0" y="563.0"/>
      <point x="799.0" y="751.0"/>
      <point x="577.0" y="828.0" type="qcurve" smooth="yes"/>
      <point x="369.0" y="902.0"/>
      <point x="128.0" y="1074.0"/>
      <point x="128.0" y="1215.0" type="qcurve" smooth="yes"/>
      <point x="128.0" y="1223.0" type="line" smooth="yes"/>
      <point x="128.0" y="1369.0"/>
      <point x="357.0" y="1514.0"/>
      <point x="558.0" y="1514.0" type="qcurve" smooth="yes"/>
      <point x="569.0" y="1514.0" type="line" smooth="yes"/>
      <point x="793.0" y="1514.0"/>
      <point x="1019.0" y="1339.0"/>
      <point x="1019.0" y="1134.0" type="qcurve" smooth="yes"/>
      <point x="1019.0" y="1115.0" type="line"/>
      <point x="1043.0" y="1115.0" type="line"/>
      <point x="1043.0" y="1139.0" type="line" smooth="yes"/>
      <point x="1043.0" y="1344.0"/>
      <point x="800.0" y="1528.0"/>
      <point x="574.0" y="1528.0" type="qcurve" smooth="yes"/>
      <point x="557.0" y="1528.0" type="line" smooth="yes"/>
      <point x="350.0" y="1528.0"/>
      <point x="109.0" y="1371.0"/>
      <point x="109.0" y="1205.0" type="qcurve" smooth="yes"/>
      <point x="109.0" y="1189.0" type="line" smooth="yes"/>
      <point x="109.0" y="1049.0"/>
      <point x="357.0" y="879.0"/>
      <point x="579.0" y="810.0" type="qcurve" smooth="yes"/>
      <point x="788.0" y="745.0"/>
      <point x="1062.0" y="550.0"/>
      <point x="1062.0" y="378.0" type="qcurve" smooth="yes"/>
      <point x="1062.0" y="381.0" type="line" smooth="yes"/>
      <point x="1062.0" y="208.0"/>
      <point x="813.0" y="-18.0"/>
      <point x="586.0" y="-18.0" type="qcurve" smooth="yes"/>
      <point x="582.0" y="-18.0" type="line" smooth="yes"/>
      <point x="331.0" y="-18.0"/>
      <point x="94.0" y="211.0"/>
      <point x="94.0" y="386.0" type="qcurve" smooth="yes"/>
      <point x="94.0" y="434.0" type="line"/>
      <point x="57.0" y="434.0" type="line"/>
      <point x="57.0" y="375.0" type="line" smooth="yes"/>
      <point x="57.0" y="203.0"/>
      <point x="304.0" y="-42.0"/>
      <point x="578.0" y="-42.0" type="qcurve" smooth="yes"/>
      <point x="588.0" y="-42.0" type="line" smooth="yes"/>
      <point x="837.0" y="-42.0"/>
      <point x="1087.0" y="232.0"/>
      <point x="1087.0" y="388.0" type="qcurve" smooth="yes"/>
    </contour>
    <contour>
      <point x="605.0" y="-100.0" type="line"/>
      <point x="605.0" y="803.0" type="line"/>
      <point x="570.0" y="803.0" type="line"/>
      <point x="570.0" y="-100.0" type="line"/>
    </contour>
    <contour>
      <point x="595.0" y="812.0" type="line"/>
      <point x="595.0" y="1593.0" type="line"/>
      <point x="560.0" y="1593.0" type="line"/>
      <point x="560.0" y="812.0" type="line"/>
    </contour>
  </outline>
</glyph>
<glyph name="eight" format="2">
  <advance width="991.0"/>
  <outline>
    <contour>
      <point x="492.0" y="-26.0" type="line" smooth="yes"/>
      <point x="304.0" y="-26.0"/>
      <point x="55.0" y="209.0"/>
      <point x="55.0" y="399.0" type="qcurve" smooth="yes"/>
      <point x="55.0" y="412.0" type="line" smooth="yes"/>
      <point x="55.0" y="588.0"/>
      <point x="298.0" y="808.0"/>
      <point x="486.0" y="808.0" type="qcurve" smooth="yes"/>
      <point x="492.0" y="808.0" type="line" smooth="yes"/>
      <point x="684.0" y="808.0"/>
      <point x="936.0" y="588.0"/>
      <point x="936.0" y="412.0" type="qcurve" smooth="yes"/>
      <point x="936.0" y="401.0" type="line" smooth="yes"/>
      <point x="936.0" y="209.0"/>
      <point x="681.0" y="-26.0"/>
      <point x="498.0" y="-26.0" type="qcurve" smooth="yes"/>
    </contour>
    <contour>
      <point x="505.0" y="-57.0" type="line" smooth="yes"/>
      <point x="711.0" y="-57.0"/>
      <point x="968.0" y="187.0"/>
      <point x="968.0" y="384.0" type="qcurve" smooth="yes"/>
      <point x="968.0" y="413.0" type="line" smooth="yes"/>
      <point x="968.0" y="608.0"/>
      <point x="713.0" y="836.0"/>
      <point x="490.0" y="836.0" type="qcurve" smooth="yes"/>
      <point x="487.0" y="836.0" type="line" smooth="yes"/>
      <point x="270.0" y="836.0"/>
      <point x="23.0" y="608.0"/>
      <point x="23.0" y="413.0" type="qcurve" smooth="yes"/>
      <point x="23.0" y="384.0" type="line" smooth="yes"/>
      <point x="23.0" y="187.0"/>
      <point x="291.0" y="-57.0"/>
      <point x="494.0" y="-57.0" type="qcurve" smooth="yes"/>
    </contour>
    <contour>
      <point x="490.0" y="832.0" type="line" smooth="yes"/>
      <point x="337.0" y="832.0"/>
      <point x="138.0" y="1017.0"/>
      <point x="138.0" y="1165.0" type="qcurve" smooth="yes"/>
      <point x="138.0" y="1172.0" type="line" smooth="yes"/>
      <point x="138.0" y="1325.0"/>
      <point x="345.0" y="1512.0"/>
      <point x="488.0" y="1512.0" type="qcurve" smooth="yes"/>
      <point x="492.0" y="1512.0" type="line" smooth="yes"/>
      <point x="641.0" y="1512.0"/>
      <point x="856.0" y="1325.0"/>
      <point x="856.0" y="1169.0" type="qcurve" smooth="yes"/>
      <point x="856.0" y="1160.0" type="line" smooth="yes"/>
      <point x="856.0" y="1017.0"/>
      <point x="652.0" y="832.0"/>
      <point x="493.0" y="832.0" type="qcurve" smooth="yes"/>
    </contour>
    <contour>
      <point x="492.0" y="807.0" type="line" smooth="yes"/>
      <point x="673.0" y="807.0"/>
      <point x="885.0" y="1001.0"/>
      <point x="885.0" y="1160.0" type="qcurve" smooth="yes"/>
      <point x="885.0" y="1184.0" type="line" smooth="yes"/>
      <point x="885.0" y="1342.0"/>
      <point x="677.0" y="1537.0"/>
      <point x="492.0" y="1537.0" type="qcurve" smooth="yes"/>
      <point x="486.0" y="1537.0" type="line" smooth="yes"/>
      <point x="312.0" y="1537.0"/>
      <point x="110.0" y="1342.0"/>
      <point x="110.0" y="1184.0" type="qcurve" smooth="yes"/>
      <point x="110.0" y="1160.0" type="line" smooth="yes"/>
      <point x="110.0" y="1001.0"/>
      <point x="309.0" y="807.0"/>
      <point x="486.0" y="807.0" type="qcurve" smooth="yes"/>
    </contour>
  </outline>
</glyph>
<glyph name="exclam" format="2">
  <advance width="512.0"/>
  <outline>
    <contour>
      <point x="269.0" y="362.0" type="line"/>
      <point x="269.0" y="1500.0" type="line"/>
      <point x="243.0" y="1500.0" type="line"/>
      <point x="243.0" y="362.0" type="line"/>
    </contour>
    <contour>
      <point x="257.0" y="3.0" type="line" smooth="yes"/>
      <point x="254.0" y="3.0"/>
      <point x="253.0" y="23.0"/>
      <point x="253.0" y="53.0" type="qcurve" smooth="yes"/>
      <point x="253.0" y="76.0" type="line" smooth="yes"/>
      <point x="253.0" y="110.0"/>
      <point x="256.0" y="127.0"/>
      <point x="257.0" y="127.0" type="qcurve" smooth="yes"/>
      <point x="257.0" y="127.0" type="line" smooth="yes"/>
      <point x="258.0" y="127.0"/>
      <point x="259.0" y="110.0"/>
      <point x="259.0" y="76.0" type="qcurve" smooth="yes"/>
      <point x="259.0" y="53.0" type="line" smooth="yes"/>
      <point x="259.0" y="19.0"/>
      <point x="258.0" y="3.0"/>
      <point x="257.0" y="3.0" type="qcurve" smooth="yes"/>
    </contour>
  </outline>
</glyph>
<glyph name="grave" format="2">
  <advance width="1000.0"/>
  <outline>
    <contour>
      <point x="455.0" y="1389.0" type="line"/>
      <point x="660.0" y="1058.0" type="line"/>
      <point x="674.0" y="1058.0" type="line"/>
      <point x="435.0" y="1389.0" type="line"/>
    </contour>
  </outline>
</glyph>
<glyph name="h" format="2">
  <advance width="1079.0"/>
  <outline>
    <contour>
      <point x="162.0" y="0.0" type="line"/>
      <point x="162.0" y="1500.0" type="line"/>
      <point x="128.0" y="1500.0" type="line"/>
      <point x="128.0" y="0.0" type="line"/>
    </contour>
    <contour>
      <point x="147.0" y="805.0" type="line"/>
      <point x="162.0" y="867.0"/>
      <point x="419.0" y="1012.0"/>
      <point x="575.0" y="1012.0" type="qcurve" smooth="yes"/>
      <point x="730.0" y="1012.0"/>
      <point x="918.0" y="834.0"/>
      <point x="919.0" y="655.0" type="qcurve" smooth="yes"/>
      <point x="923.0" y="0.0" type="line"/>
      <point x="957.0" y="0.0" type="line"/>
      <point x="953.0" y="679.0" type="line" smooth="yes"/>
      <point x="952.0" y="874.0"/>
      <point x="729.0" y="1045.0"/>
      <point x="576.0" y="1045.0" type="qcurve" smooth="yes"/>
      <point x="457.0" y="1045.0"/>
      <point x="195.0" y="925.0"/>
      <point x="137.0" y="819.0" type="qcurve"/>
    </contour>
  </outline>
</glyph>
<glyph name="hyphen" format="2">
  <advance width="1432.0"/>
  <outline>
    <contour>
      <point x="1166.0" y="806.0" type="line"/>
      <point x="266.0" y="806.0" type="line"/>
      <point x="266.0" y="775.0" type="line"/>
      <point x="1166.0" y="775.0" type="line"/>
    </contour>
  </outline>
</glyph>
<glyph name="j" format="2">
  <advance width="405.0"/>
  <outline>
    <contour>
      <point x="226.0" y="-130.0" type="line" smooth="yes"/>
      <point x="226.0" y="-326.0"/>
      <point x="104.0" y="-500.0"/>
      <point x="-50.0" y="-500.0" type="qcurve" smooth="yes"/>
      <point x="-118.0" y="-500.0"/>
      <point x="-183.0" y="-491.0"/>
      <point x="-206.0" y="-484.0" type="qcurve"/>
      <point x="-199.0" y="-513.0" type="line"/>
      <point x="-178.0" y="-518.0"/>
      <point x="-102.0" y="-532.0"/>
      <point x="-76.0" y="-532.0" type="qcurve" smooth="yes"/>
      <point x="89.0" y="-532.0"/>
      <point x="261.0" y="-338.0"/>
      <point x="261.0" y="-120.0" type="qcurve" smooth="yes"/>
      <point x="261.0" y="980.0" type="line"/>
      <point x="226.0" y="980.0" type="line"/>
    </contour>
    <contour>
      <point x="244.0" y="1364.0" type="line" smooth="yes"/>
      <point x="250.0" y="1364.0"/>
      <point x="255.0" y="1370.0"/>
      <point x="255.0" y="1376.0" type="qcurve" smooth="yes"/>
      <point x="255.0" y="1377.0" type="line" smooth="yes"/>
      <point x="255.0" y="1383.0"/>
      <point x="250.0" y="1390.0"/>
      <point x="244.0" y="1390.0" type="qcurve" smooth="yes"/>
      <point x="244.0" y="1390.0" type="line" smooth="yes"/>
      <point x="238.0" y="1390.0"/>
      <point x="233.0" y="1383.0"/>
      <point x="233.0" y="1377.0" type="qcurve" smooth="yes"/>
      <point x="233.0" y="1376.0" type="line" smooth="yes"/>
      <point x="233.0" y="1371.0"/>
      <point x="239.0" y="1364.0"/>
      <point x="244.0" y="1364.0" type="qcurve" smooth="yes"/>
    </contour>
    <contour>
      <point x="253.0" y="945.0" type="line"/>
      <point x="223.0" y="925.0" type="line"/>
      <point x="223.0" y="960.0" type="line"/>
      <point x="253.0" y="980.0" type="line"/>
    </contour>
  </outline>
</glyph>
<glyph name="l" format="2">
  <advance width="326.0"/>
  <outline>
    <contour>
      <point x="166.0" y="-81.0" type="qcurve" smooth="yes"/>
      <point x="166.0" y="1500.0" type="line"/>
      <point x="133.0" y="1500.0" type="line"/>
      <point x="153.0" y="0.0" type="line"/>
      <point x="100.0" y="-4.0"/>
      <point x="166.0" y="-71.0"/>
    </contour>
    <contour>
      <point x="186.0" y="51.0" type="line"/>
      <point x="115.0" y="0.0" type="line"/>
      <point x="115.0" y="-45.0" type="line"/>
      <point x="183.0" y="-20.0" type="line"/>
    </contour>
  </outline>
</glyph>
<glyph name="o" format="2">
  <advance width="1050.0"/>
  <outline>
    <contour>
      <point x="518.0" y="-26.0" type="line" smooth="yes"/>
      <point x="317.0" y="-26.0"/>
      <point x="76.0" y="246.0"/>
      <point x="76.0" y="478.0" type="qcurve" smooth="yes"/>
      <point x="76.0" y="489.0" type="line" smooth="yes"/>
      <point x="76.0" y="727.0"/>
      <point x="319.0" y="1012.0"/>
      <point x="514.0" y="1012.0" type="qcurve" smooth="yes"/>
      <point x="520.0" y="1012.0" type="line" smooth="yes"/>
      <point x="722.0" y="1012.0"/>
      <point x="974.0" y="726.0"/>
      <point x="974.0" y="494.0" type="qcurve" smooth="yes"/>
      <point x="974.0" y="482.0" type="line" smooth="yes"/>
      <point x="974.0" y="247.0"/>
      <point x="726.0" y="-26.0"/>
      <point x="524.0" y="-26.0" type="qcurve" smooth="yes"/>
    </contour>
    <contour>
      <point x="518.0" y="-38.0" type="line" smooth="yes"/>
      <point x="721.0" y="-38.0"/>
      <point x="1012.0" y="235.0"/>
      <point x="1012.0" y="470.0" type="qcurve" smooth="yes"/>
      <point x="1012.0" y="502.0" type="line" smooth="yes"/>
      <point x="1012.0" y="738.0"/>
      <point x="725.0" y="1031.0"/>
      <point x="518.0" y="1031.0" type="qcurve" smooth="yes"/>
      <point x="511.0" y="1031.0" type="line" smooth="yes"/>
      <point x="319.0" y="1031.0"/>
      <point x="38.0" y="738.0"/>
      <point x="38.0" y="502.0" type="qcurve" smooth="yes"/>
      <point x="38.0" y="470.0" type="line" smooth="yes"/>
      <point x="38.0" y="236.0"/>
      <point x="325.0" y="-38.0"/>
      <point x="511.0" y="-38.0" type="qcurve" smooth="yes"/>
    </contour>
  </outline>
</glyph>
<glyph name="one" format="2">
  <advance width="422.0"/>
  <outline>
    <contour>
      <point x="226.0" y="0.0" type="line"/>
      <point x="226.0" y="1500.0" type="line"/>
      <point x="196.0" y="1500.0" type="line"/>
      <point x="196.0" y="0.0" type="line"/>
    </contour>
  </outline>
</glyph>
<glyph name="p" format="2">
  <advance width="1105.0"/>
  <outline>
    <contour>
      <point x="162.0" y="-500.0" type="line"/>
      <point x="162.0" y="980.0" type="line"/>
      <point x="128.0" y="980.0" type="line"/>
      <point x="128.0" y="-500.0" type="line"/>
    </contour>
    <contour>
      <point x="142.0" y="508.0" type="line" smooth="yes"/>
      <point x="142.0" y="810.0"/>
      <point x="413.0" y="1012.0"/>
      <point x="593.0" y="1012.0" type="qcurve" smooth="yes"/>
      <point x="601.0" y="1012.0" type="line" smooth="yes"/>
      <point x="808.0" y="1012.0"/>
      <point x="1029.0" y="719.0"/>
      <point x="1029.0" y="492.0" type="qcurve" smooth="yes"/>
      <point x="1029.0" y="489.0" type="line" smooth="yes"/>
      <point x="1029.0" y="268.0"/>
      <point x="806.0" y="-27.0"/>
      <point x="605.0" y="-27.0" type="qcurve" smooth="yes"/>
      <point x="597.0" y="-27.0" type="line" smooth="yes"/>
      <point x="413.0" y="-27.0"/>
      <point x="142.0" y="184.0"/>
      <point x="142.0" y="493.0" type="qcurve" smooth="yes"/>
    </contour>
    <contour>
      <point x="140.0" y="521.0" type="qcurve" smooth="yes"/>
      <point x="140.0" y="484.0" type="line" smooth="yes"/>
      <point x="140.0" y="224.0"/>
      <point x="410.0" y="-41.0"/>
      <point x="603.0" y="-41.0" type="qcurve" smooth="yes"/>
      <point x="613.0" y="-41.0" type="line" smooth="yes"/>
      <point x="791.0" y="-41.0"/>
      <point x="1057.0" y="238.0"/>
      <point x="1057.0" y="484.0" type="qcurve" smooth="yes"/>
      <point x="1057.0" y="501.0" type="line" smooth="yes"/>
      <point x="1057.0" y="750.0"/>
      <point x="802.0" y="1031.0"/>
      <point x="623.0" y="1031.0" type="qcurve" smooth="yes"/>
      <point x="613.0" y="1031.0" type="line" smooth="yes"/>
      <point x="441.0" y="1031.0"/>
      <point x="140.0" y="769.0"/>
    </contour>
  </outline>
</glyph>
<glyph name="plus" format="2">
  <advance width="1000.0"/>
  <outline>
    <contour>
      <point x="980.0" y="782.0" type="line"/>
      <point x="20.0" y="782.0" type="line"/>
      <point x="20.0" y="767.0" type="line"/>
      <point x="980.0" y="767.0" type="line"/>
    </contour>
    <contour>
      <point x="497.0" y="1242.0" type="line"/>
      <point x="497.0" y="282.0" type="line"/>
      <point x="504.0" y="282.0" type="line"/>
      <point x="504.0" y="1242.0" type="line"/>
    </contour>
  </outline>
</glyph>
<glyph name="q" format="2">
  <advance width="1115.0"/>
  <outline>
    <contour>
      <point x="953.0" y="-500.0" type="line"/>
      <point x="987.0" y="-500.0" type="line"/>
      <point x="987.0" y="980.0" type="line"/>
      <point x="953.0" y="980.0" type="line"/>
    </contour>
    <contour>
      <point x="966.0" y="492.0" type="qcurve" smooth="yes"/>
      <point x="966.0" y="477.0" type="line" smooth="yes"/>
      <point x="966.0" y="195.0"/>
      <point x="702.0" y="-27.0"/>
      <point x="528.0" y="-27.0" type="qcurve" smooth="yes"/>
      <point x="520.0" y="-27.0" type="line" smooth="yes"/>
      <point x="310.0" y="-27.0"/>
      <point x="76.0" y="266.0"/>
      <point x="76.0" y="493.0" type="qcurve" smooth="yes"/>
      <point x="76.0" y="496.0" type="line" smooth="yes"/>
      <point x="76.0" y="717.0"/>
      <point x="312.0" y="1012.0"/>
      <point x="516.0" y="1012.0" type="qcurve" smooth="yes"/>
      <point x="524.0" y="1012.0" type="line" smooth="yes"/>
      <point x="702.0" y="1012.0"/>
      <point x="966.0" y="831.0"/>
    </contour>
    <contour>
      <point x="966.0" y="503.0" type="line" smooth="yes"/>
      <point x="966.0" y="764.0"/>
      <point x="697.0" y="1031.0"/>
      <point x="523.0" y="1031.0" type="qcurve" smooth="yes"/>
      <point x="513.0" y="1031.0" type="line" smooth="yes"/>
      <point x="322.0" y="1031.0"/>
      <point x="39.0" y="751.0"/>
      <point x="39.0" y="503.0" type="qcurve" smooth="yes"/>
      <point x="39.0" y="488.0" type="line" smooth="yes"/>
      <point x="39.0" y="237.0"/>
      <point x="321.0" y="-42.0"/>
      <point x="501.0" y="-42.0" type="qcurve" smooth="yes"/>
      <point x="511.0" y="-42.0" type="line" smooth="yes"/>
      <point x="685.0" y="-42.0"/>
      <point x="966.0" y="199.0"/>
      <point x="966.0" y="468.0" type="qcurve" smooth="yes"/>
    </contour>
  </outline>
</glyph>
<glyph name="question" format="2">
  <advance width="897.0"/>
  <outline>
    <contour>
      <point x="457.0" y="3.0" type="line" smooth="yes"/>
      <point x="455.0" y="3.0"/>
      <point x="452.0" y="23.0"/>
      <point x="452.0" y="53.0" type="qcurve" smooth="yes"/>
      <point x="452.0" y="76.0" type="line" smooth="yes"/>
      <point x="452.0" y="110.0"/>
      <point x="456.0" y="127.0"/>
      <point x="457.0" y="127.0" type="qcurve" smooth="yes"/>
      <point x="455.0" y="127.0" type="line" smooth="yes"/>
      <point x="457.0" y="127.0"/>
      <point x="459.0" y="110.0"/>
      <point x="459.0" y="76.0" type="qcurve" smooth="yes"/>
      <point x="459.0" y="53.0" type="line" smooth="yes"/>
      <point x="459.0" y="19.0"/>
      <point x="456.0" y="3.0"/>
      <point x="455.0" y="3.0" type="qcurve" smooth="yes"/>
    </contour>
    <contour>
      <point x="431.0" y="362.0" type="line"/>
      <point x="453.0" y="362.0" type="line"/>
      <point x="453.0" y="744.0" type="line"/>
      <point x="604.0" y="755.0"/>
      <point x="882.0" y="1001.0"/>
      <point x="882.0" y="1168.0" type="qcurve" smooth="yes"/>
      <point x="882.0" y="1168.0" type="line" smooth="yes"/>
      <point x="882.0" y="1351.0"/>
      <point x="650.0" y="1542.0"/>
      <point x="459.0" y="1542.0" type="qcurve" smooth="yes"/>
      <point x="451.0" y="1542.0" type="line" smooth="yes"/>
      <point x="241.0" y="1542.0"/>
      <point x="6.0" y="1341.0"/>
      <point x="11.0" y="1160.0" type="qcurve" smooth="yes"/>
      <point x="11.0" y="1120.0" type="line"/>
      <point x="43.0" y="1120.0" type="line"/>
      <point x="43.0" y="1149.0" type="line" smooth="yes"/>
      <point x="43.0" y="1326.0"/>
      <point x="274.0" y="1523.0"/>
      <point x="445.0" y="1523.0" type="qcurve" smooth="yes"/>
      <point x="451.0" y="1523.0" type="line" smooth="yes"/>
      <point x="629.0" y="1523.0"/>
      <point x="849.0" y="1335.0"/>
      <point x="849.0" y="1157.0" type="qcurve" smooth="yes"/>
      <point x="849.0" y="1160.0" type="line" smooth="yes"/>
      <point x="849.0" y="985.0"/>
      <point x="592.0" y="775.0"/>
      <point x="431.0" y="758.0" type="qcurve"/>
    </contour>
  </outline>
</glyph>
<glyph name="r" format="2">
  <advance width="641.0"/>
  <outline>
    <contour>
      <point x="162.0" y="0.0" type="line"/>
      <point x="162.0" y="979.0" type="line"/>
      <point x="132.0" y="979.0" type="line"/>
      <point x="132.0" y="0.0" type="line"/>
    </contour>
    <contour>
      <point x="102.0" y="762.0" type="line"/>
      <point x="154.0" y="867.0"/>
      <point x="403.0" y="1009.0"/>
      <point x="558.0" y="1009.0" type="qcurve" smooth="yes"/>
      <point x="571.0" y="1009.0"/>
      <point x="597.0" y="1008.0"/>
      <point x="609.0" y="1007.0" type="qcurve"/>
      <point x="609.0" y="1023.0" type="line"/>
      <point x="598.0" y="1024.0"/>
      <point x="572.0" y="1026.0"/>
      <point x="558.0" y="1026.0" type="qcurve" smooth="yes"/>
      <point x="406.0" y="1026.0"/>
      <point x="181.0" y="898.0"/>
      <point x="124.0" y="798.0" type="qcurve"/>
    </contour>
  </outline>
</glyph>
<glyph name="seven" format="2">
  <advance width="836.0"/>
  <outline>
    <contour>
      <point x="18.0" y="1500.0" type="line"/>
      <point x="745.0" y="1500.0" type="line"/>
      <point x="753.0" y="1527.0" type="line"/>
      <point x="240.0" y="0.0" type="line"/>
      <point x="269.0" y="0.0" type="line"/>
      <point x="786.0" y="1523.0" type="line"/>
      <point x="19.0" y="1523.0" type="line"/>
    </contour>
  </outline>
</glyph>
<glyph name="six" format="2">
  <advance width="1046.0"/>
  <outline>
    <contour>
      <point x="51.0" y="651.0" type="qcurve"/>
      <point x="52.0" y="486.0" type="line" smooth="yes"/>
      <point x="64.0" y="273.0"/>
      <point x="338.0" y="-48.0"/>
      <point x="558.0" y="-48.0" type="qcurve" smooth="yes"/>
      <point x="576.0" y="-48.0" type="line" smooth="yes"/>
      <point x="767.0" y="-48.0"/>
      <point x="1017.0" y="238.0"/>
      <point x="1017.0" y="443.0" type="qcurve" smooth="yes"/>
      <point x="1017.0" y="472.0" type="line" smooth="yes"/>
      <point x="1017.0" y="688.0"/>
      <point x="771.0" y="955.0"/>
      <point x="567.0" y="955.0" type="qcurve" smooth="yes"/>
      <point x="555.0" y="955.0" type="line" smooth="yes"/>
      <point x="357.0" y="955.0"/>
      <point x="37.0" y="685.0"/>
      <point x="46.0" y="532.0" type="qcurve" smooth="yes"/>
      <point x="45.0" y="505.0" type="line"/>
      <point x="58.0" y="505.0" type="line"/>
      <point x="59.0" y="517.0" type="line" smooth="yes"/>
      <point x="75.0" y="733.0"/>
      <point x="402.0" y="931.0"/>
      <point x="565.0" y="931.0" type="qcurve" smooth="yes"/>
      <point x="573.0" y="931.0" type="line" smooth="yes"/>
      <point x="767.0" y="931.0"/>
      <point x="982.0" y="701.0"/>
      <point x="982.0" y="461.0" type="qcurve" smooth="yes"/>
      <point x="982.0" y="448.0" type="line" smooth="yes"/>
      <point x="982.0" y="232.0"/>
      <point x="740.0" y="-26.0"/>
      <point x="562.0" y="-26.0" type="qcurve" smooth="yes"/>
      <point x="550.0" y="-26.0" type="line" smooth="yes"/>
      <point x="338.0" y="-26.0"/>
      <point x="80.0" y="298.0"/>
      <point x="76.0" y="610.0" type="qcurve" smooth="yes"/>
      <point x="75.0" y="581.0" type="line" smooth="yes"/>
      <point x="69.0" y="1027.0"/>
      <point x="504.0" y="1500.0"/>
      <point x="827.0" y="1500.0" type="qcurve" smooth="yes"/>
      <point x="863.0" y="1500.0" type="line"/>
      <point x="863.0" y="1530.0" type="line"/>
      <point x="833.0" y="1530.0" type="line" smooth="yes"/>
      <point x="467.0" y="1530.0"/>
      <point x="52.0" y="1040.0"/>
    </contour>
  </outline>
</glyph>
<glyph name="two" format="2">
  <advance width="915.0"/>
  <outline>
    <contour>
      <point x="887.0" y="0.0" type="line"/>
      <point x="35.0" y="0.0" type="line"/>
      <point x="35.0" y="-40.0" type="line"/>
      <point x="724.0" y="796.0" type="line" smooth="yes"/>
      <point x="771.0" y="854.0"/>
      <point x="890.0" y="1055.0"/>
      <point x="890.0" y="1187.0" type="qcurve" smooth="yes"/>
      <point x="890.0" y="1211.0" type="line" smooth="yes"/>
      <point x="890.0" y="1355.0"/>
      <point x="674.0" y="1534.0"/>
      <point x="473.0" y="1534.0" type="qcurve" smooth="yes"/>
      <point x="461.0" y="1534.0" type="line" smooth="yes"/>
      <point x="274.0" y="1534.0"/>
      <point x="42.0" y="1345.0"/>
      <point x="34.0" y="1166.0" type="qcurve" smooth="yes"/>
      <point x="33.0" y="1115.0" type="line"/>
      <point x="61.0" y="1108.0" type="line"/>
      <point x="63.0" y="1163.0" type="line" smooth="yes"/>
      <point x="69.0" y="1319.0"/>
      <point x="286.0" y="1517.0"/>
      <point x="453.0" y="1517.0" type="qcurve" smooth="yes"/>
      <point x="460.0" y="1517.0" type="line" smooth="yes"/>
      <point x="636.0" y="1517.0"/>
      <point x="858.0" y="1353.0"/>
      <point x="858.0" y="1204.0" type="qcurve" smooth="yes"/>
      <point x="858.0" y="1178.0" type="line" smooth="yes"/>
      <point x="858.0" y="1044.0"/>
      <point x="740.0" y="854.0"/>
      <point x="665.0" y="762.0" type="qcurve" smooth="yes"/>
      <point x="23.0" y="-25.0" type="line"/>
      <point x="887.0" y="-25.0" type="line"/>
    </contour>
  </outline>
</glyph>
<glyph name="v" format="2">
  <advance width="856.0"/>
  <outline>
    <contour>
      <point x="434.0" y="0.0" type="line"/>
      <point x="10.0" y="980.0" type="line"/>
      <point x="-26.0" y="980.0" type="line"/>
      <point x="428.0" y="-50.0" type="line"/>
      <point x="877.0" y="980.0" type="line"/>
      <point x="846.0" y="980.0" type="line"/>
      <point x="420.0" y="0.0" type="line"/>
    </contour>
  </outline>
</glyph>
<glyph name="w" format="2">
  <advance width="1308.0"/>
  <outline>
    <contour>
      <point x="339.0" y="-10.0" type="line"/>
      <point x="20.0" y="980.0" type="line"/>
      <point x="-16.0" y="980.0" type="line"/>
      <point x="334.0" y="-25.0" type="line"/>
      <point x="658.0" y="990.0" type="line"/>
      <point x="649.0" y="990.0" type="line"/>
      <point x="965.0" y="-27.0" type="line"/>
      <point x="1317.0" y="980.0" type="line"/>
      <point x="1287.0" y="980.0" type="line"/>
      <point x="951.0" y="-10.0" type="line"/>
      <point x="971.0" y="-10.0" type="line"/>
      <point x="662.0" y="1072.0" type="line"/>
      <point x="319.0" y="-10.0" type="line"/>
    </contour>
  </outline>
</glyph>
<glyph name="x" format="2">
  <advance width="800.0"/>
  <outline>
    <contour>
      <point x="22.0" y="0.0" type="line"/>
      <point x="768.0" y="980.0" type="line"/>
      <point x="739.0" y="980.0" type="line"/>
      <point x="-7.0" y="0.0" type="line"/>
    </contour>
    <contour>
      <point x="813.0" y="0.0" type="line"/>
      <point x="70.0" y="980.0" type="line"/>
      <point x="34.0" y="980.0" type="line"/>
      <point x="778.0" y="0.0" type="line"/>
    </contour>
  </outline>
</glyph>
<glyph name="y" format="2">
  <advance width="866.0"/>
  <outline>
    <contour>
      <point x="449.0" y="-13.0" type="qcurve"/>
      <point x="19.0" y="980.0" type="line"/>
      <point x="-17.0" y="980.0" type="line"/>
      <point x="439.0" y="-56.0" type="line"/>
      <point x="885.0" y="980.0" type="line"/>
      <point x="856.0" y="980.0" type="line"/>
      <point x="414.0" y="-33.0" type="line" smooth="yes"/>
      <point x="318.0" y="-255.0"/>
      <point x="132.0" y="-500.0"/>
      <point x="61.0" y="-500.0" type="qcurve" smooth="yes"/>
      <point x="8.0" y="-500.0"/>
      <point x="-47.0" y="-491.0"/>
      <point x="-70.0" y="-484.0" type="qcurve"/>
      <point x="-58.0" y="-502.0" type="line"/>
      <point x="-37.0" y="-507.0"/>
      <point x="24.0" y="-520.0"/>
      <point x="62.0" y="-520.0" type="qcurve" smooth="yes"/>
      <point x="135.0" y="-520.0"/>
      <point x="359.0" y="-224.0"/>
    </contour>
  </outline>
</glyph>
<glyph name="z" format="2">
  <advance width="795.0"/>
  <outline>
    <contour>
      <point x="755.0" y="0.0" type="line"/>
      <point x="65.0" y="0.0" type="line"/>
      <point x="60.0" y="-23.0" type="line"/>
      <point x="760.0" y="1013.0" type="line"/>
      <point x="83.0" y="1013.0" type="line"/>
      <point x="83.0" y="980.0" type="line"/>
      <point x="735.0" y="980.0" type="line"/>
      <point x="735.0" y="1013.0" type="line"/>
      <point x="27.0" y="-33.0" type="line"/>
      <point x="755.0" y="-33.0" type="line"/>
    </contour>
  </outline>
</glyph>
